<svg height='100px' width='100px'  fill="#fff" xmlns="http://www.w3.org/2000/svg" viewBox="0 0 63.67 52.13" x="0px" y="0px"><title>photo</title><g data-name="Layer 2"><g data-name="Layer 2"><path d="M58.55,52.13H5.13A5.13,5.13,0,0,1,0,47V5.13A5.13,5.13,0,0,1,5.13,0H58.55a5.13,5.13,0,0,1,5.13,5.13V47A5.13,5.13,0,0,1,58.55,52.13ZM5.13,4A1.13,1.13,0,0,0,4,5.13V47a1.13,1.13,0,0,0,1.13,1.13H58.55A1.13,1.13,0,0,0,59.67,47V5.13A1.13,1.13,0,0,0,58.55,4Z"></path><path d="M12.08,43.46H51.59A1.69,1.69,0,0,0,53,40.77l-5.45-7.4A1.69,1.69,0,0,0,45,33.15l-5.6,5.33-13-17.65a1.69,1.69,0,0,0-2.78.08l-13,19.94A1.69,1.69,0,0,0,12.08,43.46Z"></path><circle cx="44.13" cy="15.12" r="5.93"></circle></g></g></svg>
